<?plantuml 1.2026.2?><svg xmlns="http://www.w3.org/2000/svg" xmlns:xlink="http://www.w3.org/1999/xlink" contentStyleType="text/css" data-diagram-type="DESCRIPTION" height="650px" preserveAspectRatio="none" style="width:1603px;height:650px;background:#FFFFFF;" version="1.1" viewBox="0 0 1603 650" width="1603px" zoomAndPan="magnify"><defs/><g><!--cluster Flutter Web Frontend--><g class="cluster" data-qualified-name="Flutter Web Frontend" data-source-line="2" id="ent0002"><rect fill="none" height="97.49" rx="2.5" ry="2.5" style="stroke:#181818;stroke-width:1;" width="167" x="729" y="7"/><rect fill="none" height="10" style="stroke:#181818;stroke-width:1;" width="15" x="876" y="12"/><rect fill="none" height="2" style="stroke:#181818;stroke-width:1;" width="4" x="874" y="14"/><rect fill="none" height="2" style="stroke:#181818;stroke-width:1;" width="4" x="874" y="18"/><text fill="#000000" font-family="sans-serif" font-size="14" font-weight="bold" lengthAdjust="spacing" textLength="151.9492" x="736.5254" y="33.5352">Flutter Web Frontend</text></g><!--cluster GoLang Backend API--><g class="cluster" data-qualified-name="GoLang Backend API" data-source-line="6" id="ent0004"><rect fill="none" height="220.97" rx="2.5" ry="2.5" style="stroke:#181818;stroke-width:1;" width="1285" x="7" y="153.49"/><rect fill="none" height="10" style="stroke:#181818;stroke-width:1;" width="15" x="1272" y="158.49"/><rect fill="none" height="2" style="stroke:#181818;stroke-width:1;" width="4" x="1270" y="160.49"/><rect fill="none" height="2" style="stroke:#181818;stroke-width:1;" width="4" x="1270" y="164.49"/><text fill="#000000" font-family="sans-serif" font-size="14" font-weight="bold" lengthAdjust="spacing" textLength="146.9795" x="576.0103" y="180.0252">GoLang Backend API</text></g><!--cluster Data Storage--><g class="cluster" data-qualified-name="Data Storage" data-source-line="16" id="ent0012"><rect fill="none" height="220.98" rx="2.5" ry="2.5" style="stroke:#181818;stroke-width:1;" width="458" x="729" y="423.46"/><rect fill="none" height="10" style="stroke:#181818;stroke-width:1;" width="15" x="1167" y="428.46"/><rect fill="none" height="2" style="stroke:#181818;stroke-width:1;" width="4" x="1165" y="430.46"/><rect fill="none" height="2" style="stroke:#181818;stroke-width:1;" width="4" x="1165" y="434.46"/><text fill="#000000" font-family="sans-serif" font-size="14" font-weight="bold" lengthAdjust="spacing" textLength="92.4971" x="911.7515" y="449.9952">Data Storage</text></g><!--entity UI--><g class="entity" data-qualified-name="Flutter Web Frontend.UI" data-source-line="3" id="ent0003"><rect fill="#F1F1F1" height="46.4883" rx="2.5" ry="2.5" style="stroke:#181818;stroke-width:0.5;" width="134.1309" x="744.93" y="42"/><rect fill="#F1F1F1" height="10" style="stroke:#181818;stroke-width:0.5;" width="15" x="859.0609" y="47"/><rect fill="#F1F1F1" height="2" style="stroke:#181818;stroke-width:0.5;" width="4" x="857.0609" y="49"/><rect fill="#F1F1F1" height="2" style="stroke:#181818;stroke-width:0.5;" width="4" x="857.0609" y="53"/><text fill="#000000" font-family="sans-serif" font-size="14" lengthAdjust="spacing" textLength="94.1309" x="759.93" y="75.5352">User Interface</text></g><!--entity Auth--><g class="entity" data-qualified-name="GoLang Backend API.Auth" data-source-line="7" id="ent0005"><rect fill="#F1F1F1" height="46.4883" rx="2.5" ry="2.5" style="stroke:#181818;stroke-width:0.5;" width="124.0342" x="22.98" y="311.98"/><rect fill="#F1F1F1" height="10" style="stroke:#181818;stroke-width:0.5;" width="15" x="127.0142" y="316.98"/><rect fill="#F1F1F1" height="2" style="stroke:#181818;stroke-width:0.5;" width="4" x="125.0142" y="318.98"/><rect fill="#F1F1F1" height="2" style="stroke:#181818;stroke-width:0.5;" width="4" x="125.0142" y="322.98"/><text fill="#000000" font-family="sans-serif" font-size="14" lengthAdjust="spacing" textLength="84.0342" x="37.98" y="345.5152">Auth Service</text></g><!--entity Users--><g class="entity" data-qualified-name="GoLang Backend API.Users" data-source-line="8" id="ent0006"><rect fill="#F1F1F1" height="46.4883" rx="2.5" ry="2.5" style="stroke:#181818;stroke-width:0.5;" width="162.3291" x="181.84" y="311.98"/><rect fill="#F1F1F1" height="10" style="stroke:#181818;stroke-width:0.5;" width="15" x="324.1691" y="316.98"/><rect fill="#F1F1F1" height="2" style="stroke:#181818;stroke-width:0.5;" width="4" x="322.1691" y="318.98"/><rect fill="#F1F1F1" height="2" style="stroke:#181818;stroke-width:0.5;" width="4" x="322.1691" y="322.98"/><text fill="#000000" font-family="sans-serif" font-size="14" lengthAdjust="spacing" textLength="122.3291" x="196.84" y="345.5152">User Management</text></g><!--entity Orgs--><g class="entity" data-qualified-name="GoLang Backend API.Orgs" data-source-line="9" id="ent0007"><rect fill="#F1F1F1" height="46.4883" rx="2.5" ry="2.5" style="stroke:#181818;stroke-width:0.5;" width="220.0928" x="378.95" y="311.98"/><rect fill="#F1F1F1" height="10" style="stroke:#181818;stroke-width:0.5;" width="15" x="579.0428" y="316.98"/><rect fill="#F1F1F1" height="2" style="stroke:#181818;stroke-width:0.5;" width="4" x="577.0428" y="318.98"/><rect fill="#F1F1F1" height="2" style="stroke:#181818;stroke-width:0.5;" width="4" x="577.0428" y="322.98"/><text fill="#000000" font-family="sans-serif" font-size="14" lengthAdjust="spacing" textLength="180.0928" x="393.95" y="345.5152">Organization Management</text></g><!--entity Teams--><g class="entity" data-qualified-name="GoLang Backend API.Teams" data-source-line="10" id="ent0008"><rect fill="#F1F1F1" height="46.4883" rx="2.5" ry="2.5" style="stroke:#181818;stroke-width:0.5;" width="169.418" x="634.29" y="311.98"/><rect fill="#F1F1F1" height="10" style="stroke:#181818;stroke-width:0.5;" width="15" x="783.708" y="316.98"/><rect fill="#F1F1F1" height="2" style="stroke:#181818;stroke-width:0.5;" width="4" x="781.708" y="318.98"/><rect fill="#F1F1F1" height="2" style="stroke:#181818;stroke-width:0.5;" width="4" x="781.708" y="322.98"/><text fill="#000000" font-family="sans-serif" font-size="14" lengthAdjust="spacing" textLength="129.418" x="649.29" y="345.5152">Team Management</text></g><!--entity Events--><g class="entity" data-qualified-name="GoLang Backend API.Events" data-source-line="11" id="ent0009"><rect fill="#F1F1F1" height="46.4883" rx="2.5" ry="2.5" style="stroke:#181818;stroke-width:0.5;" width="168.5225" x="838.74" y="311.98"/><rect fill="#F1F1F1" height="10" style="stroke:#181818;stroke-width:0.5;" width="15" x="987.2625" y="316.98"/><rect fill="#F1F1F1" height="2" style="stroke:#181818;stroke-width:0.5;" width="4" x="985.2625" y="318.98"/><rect fill="#F1F1F1" height="2" style="stroke:#181818;stroke-width:0.5;" width="4" x="985.2625" y="322.98"/><text fill="#000000" font-family="sans-serif" font-size="14" lengthAdjust="spacing" textLength="128.5225" x="853.74" y="345.5152">Event Management</text></g><!--entity Matches--><g class="entity" data-qualified-name="GoLang Backend API.Matches" data-source-line="12" id="ent0010"><rect fill="#F1F1F1" height="46.4883" rx="2.5" ry="2.5" style="stroke:#181818;stroke-width:0.5;" width="233.3613" x="1042.32" y="311.98"/><rect fill="#F1F1F1" height="10" style="stroke:#181818;stroke-width:0.5;" width="15" x="1255.6813" y="316.98"/><rect fill="#F1F1F1" height="2" style="stroke:#181818;stroke-width:0.5;" width="4" x="1253.6813" y="318.98"/><rect fill="#F1F1F1" height="2" style="stroke:#181818;stroke-width:0.5;" width="4" x="1253.6813" y="322.98"/><text fill="#000000" font-family="sans-serif" font-size="14" lengthAdjust="spacing" textLength="193.3613" x="1057.32" y="345.5152">Match Scheduling/Reporting</text></g><!--entity API--><g class="entity" data-qualified-name="GoLang Backend API.API" data-source-line="13" id="ent0011"><rect fill="#F1F1F1" height="46.4883" rx="2.5" ry="2.5" style="stroke:#181818;stroke-width:0.5;" width="122.5781" x="750.71" y="188.49"/><rect fill="#F1F1F1" height="10" style="stroke:#181818;stroke-width:0.5;" width="15" x="853.2881" y="193.49"/><rect fill="#F1F1F1" height="2" style="stroke:#181818;stroke-width:0.5;" width="4" x="851.2881" y="195.49"/><rect fill="#F1F1F1" height="2" style="stroke:#181818;stroke-width:0.5;" width="4" x="851.2881" y="199.49"/><text fill="#000000" font-family="sans-serif" font-size="14" lengthAdjust="spacing" textLength="82.5781" x="765.71" y="222.0252">API Gateway</text></g><!--entity DB--><g class="entity" data-qualified-name="Data Storage.DB" data-source-line="17" id="ent0013"><rect fill="#F1F1F1" height="46.4883" rx="2.5" ry="2.5" style="stroke:#181818;stroke-width:0.5;" width="151.918" x="745.04" y="458.46"/><rect fill="#F1F1F1" height="10" style="stroke:#181818;stroke-width:0.5;" width="15" x="876.958" y="463.46"/><rect fill="#F1F1F1" height="2" style="stroke:#181818;stroke-width:0.5;" width="4" x="874.958" y="465.46"/><rect fill="#F1F1F1" height="2" style="stroke:#181818;stroke-width:0.5;" width="4" x="874.958" y="469.46"/><text fill="#000000" font-family="sans-serif" font-size="14" lengthAdjust="spacing" textLength="111.918" x="760.04" y="491.9952">NoSQL Database</text></g><!--entity S3--><g class="entity" data-qualified-name="Data Storage.S3" data-source-line="18" id="ent0014"><rect fill="#F1F1F1" height="46.4883" rx="2.5" ry="2.5" style="stroke:#181818;stroke-width:0.5;" width="194.458" x="925.77" y="581.95"/><rect fill="#F1F1F1" height="10" style="stroke:#181818;stroke-width:0.5;" width="15" x="1100.228" y="586.95"/><rect fill="#F1F1F1" height="2" style="stroke:#181818;stroke-width:0.5;" width="4" x="1098.228" y="588.95"/><rect fill="#F1F1F1" height="2" style="stroke:#181818;stroke-width:0.5;" width="4" x="1098.228" y="592.95"/><text fill="#000000" font-family="sans-serif" font-size="14" lengthAdjust="spacing" textLength="154.458" x="940.77" y="615.4852">S3 Compatible Storage</text></g><!--link UI to API--><g class="link" data-entity-1="ent0003" data-entity-2="ent0011" data-link-type="dependency" data-source-line="22" id="lnk15"><path d="M812,88.82 C812,115.96 812,155.24 812,182.31" fill="none" id="UI-to-API" style="stroke:#181818;stroke-width:1;"/><polygon fill="#181818" points="812,188.31,816,179.31,812,183.31,808,179.31,812,188.31" style="stroke:#181818;stroke-width:1;"/><text fill="#000000" font-family="sans-serif" font-size="13" lengthAdjust="spacing" textLength="94.3643" x="813" y="134.0584">HTTP Requests</text></g><!--link API to Auth--><g class="link" data-entity-1="ent0011" data-entity-2="ent0005" data-link-type="dependency" data-source-line="23" id="lnk16"><path d="M750.23,215.62 C656.16,220.83 471.71,234.28 318,264.98 C259.24,276.71 199.6614,294.8304 153.1914,310.3404" fill="none" id="API-to-Auth" style="stroke:#181818;stroke-width:1;"/><polygon fill="#181818" points="147.5,312.24,157.3034,313.1849,152.2428,310.657,154.7707,305.5964,147.5,312.24" style="stroke:#181818;stroke-width:1;"/><text fill="#000000" font-family="sans-serif" font-size="13" lengthAdjust="spacing" textLength="79.8408" x="319" y="278.5484">Authenticate</text></g><!--link API to Users--><g class="link" data-entity-1="ent0011" data-entity-2="ent0006" data-link-type="dependency" data-source-line="24" id="lnk17"><path d="M750.49,218.46 C680.25,225.81 562.21,240.6 463,264.98 C413.58,277.12 364.6948,294.2486 325.0948,309.3786" fill="none" id="API-to-Users" style="stroke:#181818;stroke-width:1;"/><polygon fill="#181818" points="319.49,311.52,329.3249,312.0444,324.1607,309.7355,326.4696,304.5713,319.49,311.52" style="stroke:#181818;stroke-width:1;"/><text fill="#000000" font-family="sans-serif" font-size="13" lengthAdjust="spacing" textLength="87.9087" x="464" y="278.5484">Manage Users</text></g><!--link API to Orgs--><g class="link" data-entity-1="ent0011" data-entity-2="ent0007" data-link-type="dependency" data-source-line="25" id="lnk18"><path d="M750.39,220.79 C704.46,228.3 640.97,241.9 589,264.98 C562.17,276.89 539.7045,292.556 520.4645,307.786" fill="none" id="API-to-Orgs" style="stroke:#181818;stroke-width:1;"/><polygon fill="#181818" points="515.76,311.51,525.2994,309.0604,519.6804,308.4067,520.3341,302.7877,515.76,311.51" style="stroke:#181818;stroke-width:1;"/><text fill="#000000" font-family="sans-serif" font-size="13" lengthAdjust="spacing" textLength="141.5464" x="590" y="278.5484">Manage Organizations</text></g><!--link API to Teams--><g class="link" data-entity-1="ent0011" data-entity-2="ent0008" data-link-type="dependency" data-source-line="26" id="lnk19"><path d="M779.79,235.28 C769.33,243.72 758.3,253.96 750,264.98 C739.38,279.07 733.4403,291.7448 728.2303,305.9948" fill="none" id="API-to-Teams" style="stroke:#181818;stroke-width:1;"/><polygon fill="#181818" points="726.17,311.63,733.0172,304.5508,727.8869,306.934,725.5037,301.8037,726.17,311.63" style="stroke:#181818;stroke-width:1;"/><text fill="#000000" font-family="sans-serif" font-size="13" lengthAdjust="spacing" textLength="94.4912" x="751" y="278.5484">Manage Teams</text></g><!--link API to Events--><g class="link" data-entity-1="ent0011" data-entity-2="ent0009" data-link-type="dependency" data-source-line="27" id="lnk20"><path d="M832.62,235.3 C852.56,257.12 878.5428,285.5605 898.4428,307.3405" fill="none" id="API-to-Events" style="stroke:#181818;stroke-width:1;"/><polygon fill="#181818" points="902.49,311.77,899.3723,302.4276,899.1174,308.0787,893.4663,307.8239,902.49,311.77" style="stroke:#181818;stroke-width:1;"/><text fill="#000000" font-family="sans-serif" font-size="13" lengthAdjust="spacing" textLength="93.6597" x="875.15" y="278.5484">Manage Events</text></g><!--link API to Matches--><g class="link" data-entity-1="ent0011" data-entity-2="ent0010" data-link-type="dependency" data-source-line="28" id="lnk21"><path d="M873.78,231.38 C904.89,241 943.09,253.17 977,264.98 C1019.14,279.65 1060.6211,295.4173 1096.3411,309.3673" fill="none" id="API-to-Matches" style="stroke:#181818;stroke-width:1;"/><polygon fill="#181818" points="1101.93,311.55,1095.0018,304.55,1097.2726,309.7311,1092.0915,312.0019,1101.93,311.55" style="stroke:#181818;stroke-width:1;"/><text fill="#000000" font-family="sans-serif" font-size="13" lengthAdjust="spacing" textLength="160.7988" x="1023.24" y="278.5484">Schedule/Report Matches</text></g><!--link Auth to DB--><g class="link" data-entity-1="ent0005" data-entity-2="ent0013" data-link-type="dependency" data-source-line="30" id="lnk22"><path d="M104.94,358.93 C120.81,375.37 144.51,396.54 170,407.46 C271.86,451.11 589.8864,470.4727 738.8064,477.3627" fill="none" id="Auth-to-DB" style="stroke:#181818;stroke-width:1;"/><polygon fill="#181818" points="744.8,477.64,735.9945,473.2283,739.8053,477.4089,735.6247,481.2198,744.8,477.64" style="stroke:#181818;stroke-width:1;"/><text fill="#000000" font-family="sans-serif" font-size="13" lengthAdjust="spacing" textLength="156.9966" x="171" y="404.0284">Store/Retrieve Auth Data</text></g><!--link Users to DB--><g class="link" data-entity-1="ent0006" data-entity-2="ent0013" data-link-type="dependency" data-source-line="31" id="lnk23"><path d="M288.91,358.82 C308.89,374.98 337.94,395.85 367,407.46 C493.21,457.92 646.3583,473.3437 738.7983,478.2237" fill="none" id="Users-to-DB" style="stroke:#181818;stroke-width:1;"/><polygon fill="#181818" points="744.79,478.54,736.0134,474.0711,739.797,478.2764,735.5916,482.06,744.79,478.54" style="stroke:#181818;stroke-width:1;"/><text fill="#000000" font-family="sans-serif" font-size="13" lengthAdjust="spacing" textLength="155.2256" x="368" y="404.0284">Store/Retrieve User Data</text></g><!--link Orgs to DB--><g class="link" data-entity-1="ent0007" data-entity-2="ent0013" data-link-type="dependency" data-source-line="32" id="lnk24"><path d="M503.51,358.66 C514.88,374.52 532.09,395.08 552,407.46 C610.88,444.07 682.1686,461.6823 738.7686,470.9323" fill="none" id="Orgs-to-DB" style="stroke:#181818;stroke-width:1;"/><polygon fill="#181818" points="744.69,471.9,736.453,466.5008,739.7555,471.0936,735.1627,474.396,744.69,471.9" style="stroke:#181818;stroke-width:1;"/><text fill="#000000" font-family="sans-serif" font-size="13" lengthAdjust="spacing" textLength="150.5537" x="553" y="404.0284">Store/Retrieve Org Data</text></g><!--link Teams to DB--><g class="link" data-entity-1="ent0008" data-entity-2="ent0013" data-link-type="dependency" data-source-line="33" id="lnk25"><path d="M712.98,358.66 C710.3,373.35 709.25,392.53 717,407.46 C728.39,429.42 744.5391,443.1538 764.9291,455.0638" fill="none" id="Teams-to-DB" style="stroke:#181818;stroke-width:1;"/><polygon fill="#181818" points="770.11,458.09,764.3561,450.0967,765.7926,455.5681,760.3211,457.0046,770.11,458.09" style="stroke:#181818;stroke-width:1;"/><text fill="#000000" font-family="sans-serif" font-size="13" lengthAdjust="spacing" textLength="161.8081" x="718" y="404.0284">Store/Retrieve Team Data</text></g><!--link Events to DB--><g class="link" data-entity-1="ent0009" data-entity-2="ent0013" data-link-type="dependency" data-source-line="34" id="lnk26"><path d="M912.2,358.75 C904.94,373.14 894.76,391.93 884,407.46 C871.59,425.39 859.5933,439.5762 846.7933,453.5462" fill="none" id="Events-to-DB" style="stroke:#181818;stroke-width:1;"/><polygon fill="#181818" points="842.74,457.97,851.7692,454.0365,846.1178,454.2835,845.8708,448.632,842.74,457.97" style="stroke:#181818;stroke-width:1;"/><text fill="#000000" font-family="sans-serif" font-size="13" lengthAdjust="spacing" textLength="160.9766" x="895.8" y="404.0284">Store/Retrieve Event Data</text></g><!--link Matches to DB--><g class="link" data-entity-1="ent0010" data-entity-2="ent0013" data-link-type="dependency" data-source-line="35" id="lnk27"><path d="M1134.33,358.85 C1116.27,374.39 1090.56,394.48 1065,407.46 C1011.77,434.51 952.6561,452.0073 903.1661,463.8173" fill="none" id="Matches-to-DB" style="stroke:#181818;stroke-width:1;"/><polygon fill="#181818" points="897.33,465.21,907.0127,467.0117,902.1934,464.0494,905.1557,459.2302,897.33,465.21" style="stroke:#181818;stroke-width:1;"/><text fill="#000000" font-family="sans-serif" font-size="13" lengthAdjust="spacing" textLength="164.9946" x="1093.72" y="404.0284">Store/Retrieve Match Data</text></g><!--link API to DB--><g class="link" data-entity-1="ent0011" data-entity-2="ent0013" data-link-type="dependency" data-source-line="37" id="lnk28"><path d="M873.76,215.03 C993.27,221.04 1248.36,241.97 1293,311.98 C1385.58,457.17 1059.0393,478.6314 903.2693,480.9314" fill="none" id="API-to-DB" style="stroke:#181818;stroke-width:1;"/><polygon fill="#181818" points="897.27,481.02,906.3281,484.8867,902.2695,480.9462,906.21,476.8876,897.27,481.02" style="stroke:#181818;stroke-width:1;"/><text fill="#000000" font-family="sans-serif" font-size="13" lengthAdjust="spacing" textLength="103.0161" x="1309.99" y="340.2884">Read/Write Data</text></g><!--link API to S3--><g class="link" data-entity-1="ent0011" data-entity-2="ent0014" data-link-type="dependency" data-source-line="38" id="lnk29"><path d="M873.6,212.51 C1015.32,213.53 1357.33,225.1 1422,311.98 C1518.97,442.23 1260.6625,537.8485 1116.0725,579.7885" fill="none" id="API-to-S3" style="stroke:#181818;stroke-width:1;"/><polygon fill="#181818" points="1110.31,581.46,1120.068,582.7944,1115.1121,580.0671,1117.8394,575.1111,1110.31,581.46" style="stroke:#181818;stroke-width:1;"/><text fill="#000000" font-family="sans-serif" font-size="13" lengthAdjust="spacing" textLength="155.6953" x="1439.85" y="404.0284">Upload/Download Media</text></g><!--link DB to S3--><g class="link" data-entity-1="ent0013" data-entity-2="ent0014" data-link-type="dependency" data-source-line="41" id="lnk30"><path d="M791.7,505.42 C777.23,519.39 765.17,537.34 777,551.95 C795.86,575.24 859.2442,587.8428 919.5242,595.2028" fill="none" id="DB-to-S3" style="stroke:#181818;stroke-width:1;"/><polygon fill="#181818" points="925.48,595.93,917.0311,590.8687,920.5169,595.324,916.0616,598.8097,925.48,595.93" style="stroke:#181818;stroke-width:1;"/><text fill="#000000" font-family="sans-serif" font-size="13" lengthAdjust="spacing" textLength="201.2905" x="778" y="548.5184">Reference Media Files (via URLs)</text></g><!--link S3 to DB--><g class="link" data-entity-1="ent0014" data-entity-2="ent0013" data-link-type="dependency" data-source-line="42" id="lnk31"><path d="M1015.32,581.62 C1009.08,566.44 998.86,547.07 984,534.95 C959.36,514.86 932.6475,503.9475 903.1375,496.2875" fill="none" id="S3-to-DB" style="stroke:#181818;stroke-width:1;"/><polygon fill="#181818" points="897.33,494.78,905.0363,500.9129,902.1696,496.0362,907.0463,493.1695,897.33,494.78" style="stroke:#181818;stroke-width:1;"/><text fill="#000000" font-family="sans-serif" font-size="13" lengthAdjust="spacing" textLength="146.8403" x="999.57" y="548.5184">Store Media References</text></g><?plantuml-src TPF1JkCm48RlVeeH5tOFY0Et7bQYX4AbbkqcZJWW3cuoRIrIEskxHRk8TsSyTj9IARd4cl-RySoVoILak5OQeJAxrcZKted-21UJPkyzMdZ65KoiqHvrVG4V0kXvAHqfKuhPjQpm5QI3SYe-nMc11pEJUWDZMRrHAjmkfdtwxTvleK1xK2av14ugpwMM6znHcLYQOYxAl-r6QlLVUcNqEKPQefOeT-TgY2Nv_X0QFDCvc82vz1KrM6sntZTARwvpR8trT6AKPKmipGKFqkEx_1T7MPmRaKaleV36qdMz1K-c-3E38AsaYoPauoWLDt17sJJZgi4kaOdY9fI-x3wSnOQDS5lLEb5EuUhgLxWVHl2uN2uWnxzxT3HKYB4MV1_nYpfJ5RNTQsmoYT6Mv7ad1ckFskb7E39iy16AVdTYTFUe9hSxEJbAUZ8Ta-Mzru9x3sms3XYv4XXl5Hum3XRC576C8OwtYpcUQ0WZCL9nfY6CruovDDuG61UEoMxI8JIk7gEzEypbAElhPwiyHhKJQLj6KBQD8JapxpeSO8wraYURuk8IGOqj_OkeAqMMKjc-G8vhj1J7c0eJrL2JFmvqBFEP-oc8-jvo0lj49xu0?></g></svg>